<svg width="45" height="50" viewBox="0 0 45 50" fill="none" xmlns="http://www.w3.org/2000/svg">
<path d="M30.4898 8.07021C30.4899 9.83557 29.9113 11.5523 28.8428 12.9575C27.7742 14.3628 26.2745 15.379 24.5733 15.8507C24.8579 15.9387 25.1389 16.0456 25.4131 16.1715L25.4269 16.1766L41.745 23.6795C43.8091 24.6417 44.5006 26.4817 44.7161 27.7457C44.8679 28.6251 44.8472 29.677 44.8368 30.2236V36.297C44.826 37.6363 44.4272 38.9437 43.6887 40.0611C42.9502 41.1784 41.9037 42.0578 40.6758 42.5928L25.3769 49.3766C24.4449 49.7877 23.4374 50 22.4187 50C21.4 50 20.3925 49.7877 19.4605 49.3766L4.15813 42.5928C2.93278 42.0549 1.8888 41.1747 1.15159 40.0579C0.414384 38.941 0.0153103 37.6351 0.00231428 36.297V30.3633C-0.000771426 30.1242 -0.000771426 29.8851 0.00231428 29.646V29.3149H0.0109365C0.0161097 29.1252 0.0281803 28.9493 0.0419756 28.7976C0.126471 27.9336 0.340298 26.8835 0.947288 25.8919C1.55014 24.9123 2.44174 24.1436 3.4994 23.6916L19.3932 16.1853L19.4053 16.1801C19.6847 16.0508 19.9726 15.9387 20.2623 15.849C18.3847 15.3239 16.7604 14.1371 15.6897 12.5078C14.6189 10.8784 14.1738 8.91665 14.4368 6.98476C14.6997 5.05288 15.6529 3.2814 17.1202 1.99753C18.5875 0.713664 20.4699 0.00413568 22.4196 0C24.5599 0 26.6126 0.850252 28.1261 2.36371C29.6395 3.87717 30.4898 5.92986 30.4898 8.07021ZM41.3932 29.3149C41.3794 28.2457 41.2311 27.2456 40.2896 26.8059L24.144 19.3823V22.5776C27.5462 23.2174 30.2363 25.7057 30.9933 28.8889C31.2175 29.8805 30.6484 30.8893 29.6638 31.3117C27.3691 32.2698 24.9071 32.7632 22.4204 32.7632C19.9337 32.7632 17.4718 32.2698 15.1771 31.3117C14.1752 30.8893 13.6234 29.8805 13.8476 28.8889C14.589 25.7005 17.286 23.2105 20.6952 22.5742V19.384L4.92549 26.8335C3.98224 27.2352 3.58907 27.9491 3.47354 29.1338L3.46147 29.2993L21.5746 37.7645C21.8387 37.8842 22.1253 37.9462 22.4153 37.9462C22.7052 37.9462 22.9918 37.8842 23.2559 37.7645L41.388 29.3149H41.3932Z" fill="black"/>
</svg>
