<svg width="28" height="27" viewBox="0 0 28 27" fill="none" xmlns="http://www.w3.org/2000/svg">
<path fill-rule="evenodd" clip-rule="evenodd" d="M12.4155 24.3285C12.9636 25.1505 13.7061 25.8244 14.5772 26.2905C15.4483 26.7565 16.4211 27.0002 17.409 27H17.7285C18.1643 27.0001 18.5948 26.9052 18.9902 26.722C19.3855 26.5388 19.7362 26.2716 20.0179 25.9391C20.2996 25.6067 20.5054 25.2168 20.6211 24.7967C20.7369 24.3766 20.7597 23.9363 20.688 23.5065L19.77 18H23.34C24.0058 18 24.6632 17.8524 25.265 17.5676C25.8668 17.2828 26.3979 16.8681 26.8201 16.3533C27.2422 15.8384 27.5448 15.2364 27.7062 14.5904C27.8675 13.9445 27.8835 13.2708 27.753 12.618L25.953 3.618C25.7491 2.59775 25.1979 1.67968 24.3933 1.02004C23.5887 0.360396 22.5804 -6.52997e-05 21.54 8.87292e-09H4.5C3.30653 8.87292e-09 2.16193 0.474106 1.31802 1.31802C0.474106 2.16193 0 3.30653 0 4.5V16.5C0 16.8978 0.158035 17.2794 0.43934 17.5607C0.720644 17.842 1.10218 18 1.5 18H7.395C7.64189 18 7.88497 18.0609 8.10268 18.1773C8.32038 18.2937 8.50598 18.4621 8.643 18.6675L12.4155 24.3285ZM6 3V15H3V4.5C3 4.10218 3.15804 3.72064 3.43934 3.43934C3.72065 3.15804 4.10218 3 4.5 3H6Z" fill="black"/>
</svg>
