<svg width="27" height="29" viewBox="0 0 27 29" fill="none" xmlns="http://www.w3.org/2000/svg">
<path fill-rule="evenodd" clip-rule="evenodd" d="M13.384 17.8988L15.5611 19.7659L22.2263 25.4764C22.3315 25.5662 22.4602 25.624 22.5972 25.6431C22.7342 25.6621 22.8737 25.6416 22.9994 25.5839C23.1251 25.5262 23.2317 25.4338 23.3065 25.3175C23.3814 25.2012 23.4215 25.066 23.422 24.9277V6.69199C23.422 5.80458 23.0694 4.95351 22.442 4.32601C21.8145 3.69852 20.9634 3.346 20.076 3.346H6.69199C5.80458 3.346 4.95351 3.69852 4.32602 4.32601C3.69852 4.95351 3.346 5.80458 3.346 6.69199V24.9277C3.34608 25.0662 3.38582 25.2017 3.46053 25.3183C3.53523 25.4349 3.64178 25.5277 3.76755 25.5857C3.89332 25.6436 4.03306 25.6643 4.17024 25.6454C4.30742 25.6264 4.4363 25.5685 4.54163 25.4786L11.2069 19.7681L13.384 17.8988ZM26.768 6.69199C26.768 4.91716 26.0629 3.21503 24.8079 1.96004C23.5529 0.705047 21.8508 0 20.076 0H6.69199C4.91717 0 3.21503 0.705047 1.96004 1.96004C0.705048 3.21503 2.34196e-07 4.91716 2.34196e-07 6.69199V24.9277C-0.000263866 25.7064 0.222845 26.4689 0.642861 27.1247C1.06288 27.7805 1.66217 28.302 2.36966 28.6275C3.07715 28.9529 3.86314 29.0686 4.63441 28.9608C5.40566 28.853 6.12983 28.5263 6.72099 28.0194L13.384 22.3066L20.047 28.0171C20.6379 28.5238 21.3616 28.8505 22.1325 28.9584C22.9033 29.0664 23.689 28.9511 24.3963 28.6262C25.1036 28.3013 25.703 27.7804 26.1233 27.1253C26.5437 26.4702 26.7674 25.7083 26.768 24.9299V6.69199Z" fill="black"/>
</svg>
