<svg width="28" height="27" viewBox="0 0 28 27" fill="none" xmlns="http://www.w3.org/2000/svg">
<path fill-rule="evenodd" clip-rule="evenodd" d="M12.4155 2.6715C12.9636 1.84951 13.7061 1.17558 14.5772 0.709538C15.4483 0.243497 16.4211 -0.000229922 17.409 1.62753e-07H17.7285C18.1643 -5.33994e-05 18.5948 0.0948215 18.9902 0.278026C19.3855 0.46123 19.7362 0.728366 20.0179 1.06085C20.2996 1.39334 20.5054 1.78319 20.6212 2.2033C20.7369 2.62341 20.7597 3.06368 20.688 3.4935L19.77 9H23.34C24.0058 8.99996 24.6632 9.14764 25.265 9.4324C25.8668 9.71717 26.3979 10.1319 26.8201 10.6467C27.2422 11.1616 27.5448 11.7636 27.7062 12.4096C27.8675 13.0555 27.8835 13.7292 27.753 14.382L25.953 23.382C25.7491 24.4022 25.1979 25.3203 24.3933 25.98C23.5887 26.6396 22.5804 27.0001 21.54 27H4.5C3.30653 27 2.16193 26.5259 1.31802 25.682C0.474106 24.8381 0 23.6935 0 22.5V10.5C0 10.1022 0.158035 9.72065 0.43934 9.43934C0.720645 9.15804 1.10218 9 1.5 9H7.395C7.64189 9.00004 7.88497 8.93913 8.10268 8.82269C8.32038 8.70625 8.50598 8.53787 8.643 8.3325L12.4155 2.6715ZM6 12H3V22.5C3 22.8978 3.15804 23.2794 3.43934 23.5607C3.72065 23.842 4.10218 24 4.5 24H6V12Z" fill="black"/>
</svg>
