<svg width="22" height="22" viewBox="0 0 22 22" fill="none" xmlns="http://www.w3.org/2000/svg">
<path fill-rule="evenodd" clip-rule="evenodd" d="M11 13.9613L18.4004 21.3617C18.7931 21.7544 19.3257 21.975 19.881 21.975C20.4364 21.975 20.969 21.7544 21.3617 21.3617C21.7544 20.969 21.975 20.4364 21.975 19.8811C21.975 19.3257 21.7544 18.7931 21.3617 18.4004L13.9585 11L21.3603 3.59963C21.5546 3.40519 21.7088 3.17437 21.8139 2.92036C21.9191 2.66635 21.9732 2.39411 21.9731 2.1192C21.973 1.84428 21.9188 1.57207 21.8135 1.31811C21.7083 1.06414 21.554 0.833401 21.3596 0.639053C21.1651 0.444704 20.9343 0.290557 20.6803 0.185411C20.4263 0.0802656 20.1541 0.0261811 19.8791 0.0262459C19.6042 0.0263107 19.332 0.0805232 19.0781 0.185789C18.8241 0.291054 18.5934 0.445311 18.399 0.639751L11 8.04015L3.59961 0.639751C3.4066 0.439733 3.1757 0.280157 2.92036 0.170332C2.66503 0.0605071 2.39038 0.00263317 2.11244 8.77829e-05C1.8345 -0.00245761 1.55883 0.050376 1.30153 0.155506C1.04423 0.260636 0.810436 0.415957 0.613802 0.612406C0.417167 0.808855 0.261626 1.0425 0.156253 1.2997C0.0508809 1.55691 -0.00221267 1.83252 7.06363e-05 2.11046C0.00235394 2.38841 0.0599682 2.66311 0.169552 2.91855C0.279136 3.17399 0.438495 3.40504 0.63833 3.59824L8.04152 11L0.639726 18.4018C0.439891 18.595 0.280532 18.8261 0.170948 19.0815C0.0613642 19.337 0.00374935 19.6117 0.00146605 19.8896C-0.000817258 20.1675 0.0522763 20.4432 0.157649 20.7004C0.263021 20.9576 0.418563 21.1912 0.615197 21.3877C0.811831 21.5841 1.04562 21.7394 1.30292 21.8446C1.56023 21.9497 1.83589 22.0025 2.11383 22C2.39177 21.9974 2.66642 21.9396 2.92176 21.8297C3.17709 21.7199 3.408 21.5603 3.601 21.3603L11 13.9613Z" fill="black"/>
</svg>
