<svg width="26" height="25" viewBox="0 0 26 25" fill="none" xmlns="http://www.w3.org/2000/svg">
<path d="M11.6358 0.784244C11.7748 0.545623 11.974 0.347632 12.2135 0.210024C12.4529 0.072416 12.7243 0 13.0005 0C13.2767 0 13.548 0.072416 13.7875 0.210024C14.0269 0.347632 14.2261 0.545623 14.3652 0.784244L17.897 6.84707L24.7559 8.33308C25.0257 8.39171 25.2754 8.52003 25.4801 8.70526C25.6849 8.89048 25.8375 9.12614 25.9228 9.38873C26.008 9.65133 26.023 9.93169 25.9661 10.2019C25.9093 10.472 25.7826 10.7226 25.5987 10.9285L20.9233 16.1612L21.631 23.1427C21.6589 23.4176 21.6142 23.695 21.5014 23.9472C21.3885 24.1994 21.2115 24.4177 20.9879 24.5801C20.7644 24.7425 20.5022 24.8434 20.2274 24.8728C19.9526 24.9022 19.675 24.8589 19.4222 24.7474L13.0005 21.9169L6.57878 24.7474C6.32595 24.8589 6.0483 24.9022 5.77355 24.8728C5.49879 24.8434 5.23655 24.7425 5.013 24.5801C4.78945 24.4177 4.61242 24.1994 4.49959 23.9472C4.38675 23.695 4.34206 23.4176 4.36998 23.1427L5.0776 16.1612L0.402228 10.9298C0.218028 10.7239 0.0910696 10.4732 0.0340278 10.2029C-0.0230139 9.93253 -0.00814333 9.65195 0.0771549 9.38915C0.162453 9.12635 0.315195 8.89053 0.520131 8.70521C0.725067 8.5199 0.975028 8.39159 1.24506 8.33308L8.10396 6.84707L11.6358 0.784244Z" fill="black"/>
</svg>
