<svg width="33" height="33" viewBox="0 0 33 33" fill="none" xmlns="http://www.w3.org/2000/svg">
<path d="M14.025 22.6875H18.975L16.5 17.7375L14.025 22.6875ZM10.725 18.15C11.6325 18.15 12.4097 17.8272 13.0565 17.1815C13.7033 16.5358 14.0261 15.7586 14.025 14.85C14.0239 13.9414 13.7011 13.1648 13.0565 12.5202C12.4119 11.8756 11.6347 11.5522 10.725 11.55C9.81531 11.5478 9.03871 11.8712 8.39521 12.5202C7.75171 13.1692 7.42831 13.9458 7.42501 14.85C7.42171 15.7542 7.74511 16.5314 8.39521 17.1815C9.04531 17.8316 9.82191 18.1544 10.725 18.15ZM22.275 18.15C23.1825 18.15 23.9597 17.8272 24.6065 17.1815C25.2533 16.5358 25.5761 15.7586 25.575 14.85C25.5739 13.9414 25.2511 13.1648 24.6065 12.5202C23.9619 11.8756 23.1847 11.5522 22.275 11.55C21.3653 11.5478 20.5887 11.8712 19.9452 12.5202C19.3017 13.1692 18.9783 13.9458 18.975 14.85C18.9717 15.7542 19.2951 16.5314 19.9452 17.1815C20.5953 17.8316 21.3719 18.1544 22.275 18.15ZM6.60001 33V25.9875C5.52751 25.52 4.58536 24.8947 3.77356 24.1115C2.96176 23.3283 2.27426 22.4411 1.71106 21.45C1.14786 20.4589 0.721606 19.4002 0.432306 18.2738C0.143006 17.1474 -0.00109375 16.0061 6.24999e-06 14.85C6.24999e-06 10.505 1.54001 6.94375 4.62001 4.16625C7.70001 1.38875 11.66 0 16.5 0C21.34 0 25.3 1.38875 28.38 4.16625C31.46 6.94375 33 10.505 33 14.85C33 16.005 32.8559 17.1463 32.5677 18.2738C32.2795 19.4013 31.8533 20.46 31.289 21.45C30.7247 22.44 30.0372 23.3272 29.2265 24.1115C28.4158 24.8958 27.4736 25.5211 26.4 25.9875V33H21.45V29.7H18.15V33H14.85V29.7H11.55V33H6.60001Z" fill="white"/>
</svg>
