<svg width="25" height="28" viewBox="0 0 25 28" fill="none" xmlns="http://www.w3.org/2000/svg">
<path d="M24.7183 17.5894L22.1154 14.9865V11.5385C22.1124 9.15561 21.226 6.85851 19.6275 5.09133C18.0291 3.32415 15.8321 2.21244 13.4615 1.97115V0H11.5385V1.97115C9.16786 2.21244 6.97092 3.32415 5.37247 5.09133C3.77402 6.85851 2.8876 9.15561 2.88462 11.5385V14.9865L0.281731 17.5894C0.101395 17.7697 5.4459e-05 18.0142 0 18.2692V21.1538C0 21.4089 0.101305 21.6534 0.281628 21.8338C0.461951 22.0141 0.706523 22.1154 0.961538 22.1154H7.69231V23.0769C7.69231 24.352 8.19883 25.5749 9.10045 26.4765C10.0021 27.3781 11.2249 27.8846 12.5 27.8846C13.7751 27.8846 14.9979 27.3781 15.8996 26.4765C16.8012 25.5749 17.3077 24.352 17.3077 23.0769V22.1154H24.0385C24.2935 22.1154 24.538 22.0141 24.7184 21.8338C24.8987 21.6534 25 21.4089 25 21.1538V18.2692C24.9999 18.0142 24.8986 17.7697 24.7183 17.5894ZM15.3846 23.0769C15.3846 23.842 15.0807 24.5757 14.5397 25.1167C13.9988 25.6576 13.265 25.9615 12.5 25.9615C11.735 25.9615 11.0012 25.6576 10.4603 25.1167C9.9193 24.5757 9.61538 23.842 9.61538 23.0769V22.1154H15.3846V23.0769Z" fill="black"/>
</svg>
