<svg width="40" height="29" viewBox="0 0 40 29" fill="none" xmlns="http://www.w3.org/2000/svg">
<path d="M38.2273 26.3636H36.9091V17.1364C36.9091 16.4372 36.6313 15.7666 36.1369 15.2722C35.6425 14.7778 34.9719 14.5 34.2727 14.5H27.6818V2.63636C27.6818 1.93716 27.4041 1.26659 26.9096 0.772173C26.4152 0.277759 25.7447 0 25.0455 0H14.5C13.8008 0 13.1302 0.277759 12.6358 0.772173C12.1414 1.26659 11.8636 1.93716 11.8636 2.63636V7.90909H5.27273C4.57352 7.90909 3.90295 8.18685 3.40854 8.68126C2.91412 9.17568 2.63636 9.84625 2.63636 10.5455V26.3636H1.31818C0.968578 26.3636 0.633294 26.5025 0.386086 26.7497C0.138879 26.9969 0 27.3322 0 27.6818C0 28.0314 0.138879 28.3667 0.386086 28.6139C0.633294 28.8611 0.968578 29 1.31818 29H38.2273C38.5769 29 38.9122 28.8611 39.1594 28.6139C39.4066 28.3667 39.5455 28.0314 39.5455 27.6818C39.5455 27.3322 39.4066 26.9969 39.1594 26.7497C38.9122 26.5025 38.5769 26.3636 38.2273 26.3636ZM11.8636 26.3636H5.27273V10.5455H11.8636V26.3636ZM21.75 15.8182C21.75 16.1678 21.6111 16.5031 21.3639 16.7503C21.1167 16.9975 20.7814 17.1364 20.4318 17.1364C20.0822 17.1364 19.7469 16.9975 19.4997 16.7503C19.2525 16.5031 19.1136 16.1678 19.1136 15.8182V11.0562L18.8714 11.137C18.7072 11.1917 18.5338 11.2136 18.3611 11.2013C18.1884 11.1891 18.0198 11.1429 17.865 11.0655C17.7102 10.988 17.5721 10.8809 17.4586 10.7501C17.3452 10.6193 17.2587 10.4675 17.2039 10.3032C17.1492 10.139 17.1273 9.96559 17.1396 9.79291C17.1519 9.62023 17.198 9.45166 17.2754 9.29681C17.3529 9.14197 17.46 9.00389 17.5908 8.89047C17.7216 8.77704 17.8734 8.69048 18.0377 8.63574L20.0149 7.97665C20.2131 7.91059 20.4241 7.89257 20.6306 7.92407C20.8371 7.95557 21.0331 8.03569 21.2026 8.15783C21.372 8.27997 21.51 8.44063 21.6052 8.62656C21.7004 8.8125 21.75 9.01839 21.75 9.22727V15.8182ZM34.2727 26.3636H27.6818V17.1364H34.2727V26.3636Z" fill="white"/>
</svg>
