<svg width="31" height="36" viewBox="0 0 31 36" fill="none" xmlns="http://www.w3.org/2000/svg">
<path d="M3.581 35.6551C2.98612 35.654 2.40178 35.498 1.88545 35.2026C0.722788 34.5438 0 33.2648 0 31.8764V3.77882C0 2.38653 0.722788 1.11148 1.88545 0.452639C2.41408 0.148833 3.0146 -0.00740036 3.62426 0.000269386C4.23392 0.00793913 4.83033 0.179231 5.35115 0.49624L29.3649 14.8706C29.8654 15.1844 30.278 15.6202 30.564 16.1371C30.85 16.6539 31 17.235 31 17.8257C31 18.4164 30.85 18.9974 30.564 19.5143C30.278 20.0312 29.8654 20.467 29.3649 20.7808L5.34727 35.159C4.81429 35.4812 4.20381 35.6527 3.581 35.6551Z" fill="white"/>
</svg>
