<svg width="38" height="26" viewBox="0 0 38 26" fill="none" xmlns="http://www.w3.org/2000/svg">
<path d="M2.16007 25.9208H25.9208C27.1089 25.9208 28.0809 24.9488 28.0809 23.7608C28.0809 22.5727 27.1089 21.6007 25.9208 21.6007H2.16007C0.972032 21.6007 0 22.5727 0 23.7608C0 24.9488 0.972032 25.9208 2.16007 25.9208ZM2.16007 15.1205H19.4406C20.6287 15.1205 21.6007 14.1485 21.6007 12.9604C21.6007 11.7724 20.6287 10.8003 19.4406 10.8003H2.16007C0.972032 10.8003 0 11.7724 0 12.9604C0 14.1485 0.972032 15.1205 2.16007 15.1205ZM0 2.16007C0 3.34811 0.972032 4.32014 2.16007 4.32014H25.9208C27.1089 4.32014 28.0809 3.34811 28.0809 2.16007C28.0809 0.972031 27.1089 0 25.9208 0H2.16007C0.972032 0 0 0.972031 0 2.16007ZM37.3692 19.1814L31.1482 12.9604L37.3692 6.73942C37.5692 6.53943 37.7278 6.30202 37.8361 6.04073C37.9443 5.77944 38 5.49939 38 5.21657C38 4.93375 37.9443 4.6537 37.8361 4.39241C37.7278 4.13112 37.5692 3.8937 37.3692 3.69372C37.1692 3.49374 36.9318 3.3351 36.6705 3.22687C36.4092 3.11864 36.1292 3.06293 35.8464 3.06293C35.5636 3.06293 35.2835 3.11864 35.0222 3.22687C34.7609 3.3351 34.5235 3.49374 34.3235 3.69372L26.5689 11.4484C26.3686 11.6482 26.2098 11.8856 26.1014 12.1469C25.993 12.4082 25.9372 12.6883 25.9372 12.9712C25.9372 13.2541 25.993 13.5342 26.1014 13.7956C26.2098 14.0569 26.3686 14.2942 26.5689 14.4941L34.3235 22.2487C35.1659 23.0911 36.5268 23.0911 37.3692 22.2487C38.19 21.4063 38.2116 20.0238 37.3692 19.1814Z" fill="white"/>
</svg>
